<svg id="Layer_1" data-name="Layer 1" xmlns="http://www.w3.org/2000/svg" viewBox="0 0 469.76 490.01"><defs><style>.cls-1{fill:#929497;}.cls-2{fill:#d0d2d3;}.cls-3{fill:#d1d9dd;}.cls-4{fill:#ed458b;}.cls-5{fill:#e6e7e8;}</style></defs><title>settingsIcon</title><path class="cls-1" d="M340,641.77c-24.82.07-49.64.24-74.47.16-6.87,0-10-3.3-11.54-10.76-3.1-15.12-6.31-30.21-9.23-45.36-1.88-9.76-7.39-16.38-16-21-9.53-5.09-19-10.34-28.23-15.94-8.44-5.12-17.16-5.86-26.28-2.85-14.5,4.78-28.93,9.78-43.4,14.67-7.41,2.5-12.35.71-16.39-6.05q-19.86-33.2-39.65-66.44c-4.6-7.73-3.15-15.36,3.46-21.32,12.37-11.14,25.48-21.46,37-33.57a24.31,24.31,0,0,0,6.79-17.7c-.15-12-.34-24,.06-36,.31-9.3-3.49-16.51-10-22.46-11.31-10.34-22.83-20.45-34.34-30.57-5.73-5-7.52-13.1-3.59-19.74q20.44-34.6,41.21-69c3.1-5.15,8.43-6.85,14.24-4.91,13.54,4.52,27.16,8.82,40.55,13.73,11.92,4.37,22.75,3.85,33.55-3.52,7.79-5.32,16.39-9.52,24.8-13.88,8.86-4.6,14.43-11.37,16.33-21.31,2.9-15.15,6.1-30.25,9.21-45.36,1.6-7.8,5.06-10.61,13.22-10.61q39.74,0,79.49,0c8.12,0,11.57,2.84,13.17,10.67,3.1,15.12,6.31,30.21,9.21,45.36,1.79,9.36,6.77,16.2,15.07,20.56,10.16,5.34,20.21,10.88,30,16.91,8.06,5,16.63,5.36,25.39,2.47,14.5-4.78,28.93-9.77,43.4-14.66,7.63-2.58,12.53-.75,16.74,6.3q19.58,32.78,39.13,65.58c5,8.33,3.65,15.77-3.41,22.12-12.13,10.9-24.86,21.14-36.29,32.82-3.36,3.43-5,7.74-7,11.89-1.49.06-2.44-.87-3.4-1.82-5.2-5.13-10.6-10-15.88-15.08-17.31-16.52-34.27-33.41-51.37-50.14-1.39-1.36-2.54-3.2-4.92-2.93C404.76,289.54,392,278.23,376.79,270c-29.31-15.92-60.49-21-93.33-15.89A129.19,129.19,0,0,0,236,271a14.45,14.45,0,0,0-2.27.92c-29.87,18.27-51.15,43.62-62.73,76.78-6.82,19.52-8.72,39.57-7.31,60.27,1.59,23.27,8.65,44.48,20.47,64.3,8.87,14.88,20.64,27.24,33.91,38.23.6,4.51,4.29,7.07,7,9.88q27.2,27.84,54,56.09c15.58,16.41,31.86,32.17,47.28,48.73C331,631.2,336.66,635.55,340,641.77Z" transform="translate(-72.07 -151.99)"/><path class="cls-2" d="M340,641.77c-3.39-6.22-9-10.57-13.7-15.6-15.43-16.55-31.7-32.31-47.28-48.73q-26.8-28.23-54-56.09c-2.74-2.8-6.43-5.37-7-9.87,9.07,6.72,18.51,12.83,28.88,17.39,8.08,3.41,16.14,6.65,24.76,8.74a145.6,145.6,0,0,0,66.54,1c32.34-7.2,59.32-23.76,80.36-49.62,23.26-28.59,33.43-61.47,32.19-98.1-.21-2-.56-3.95-.61-5.93-.4-17.55-5.51-33.92-12.59-49.77-5.38-12.05-12.91-22.78-21.07-33.09,2.38-.27,3.53,1.57,4.92,2.93,17.11,16.73,34.06,33.62,51.37,50.14,5.28,5,10.68,10,15.88,15.08,1,.95,1.91,1.88,3.4,1.82,0,13.82.23,27.66-.21,41.47-.31,9.82,3.49,17.41,10.52,23.73,11.15,10,22,20.37,33.7,29.73,5.83,4.67,7,14.61,3.69,20.26q-20.47,34.52-41.15,68.91c-3.06,5.1-8.45,6.85-14.23,4.93-14-4.65-28-9.19-41.91-14.12-11.26-4-21.49-3.24-31.67,3.57-8,5.34-16.65,9.69-25.19,14.12-9.21,4.77-14.76,11.87-16.68,22.18-2.64,14.17-5.67,28.27-8.69,42.37-2.42,11.25-4.68,12.93-16.27,12.83C342.7,642,341.37,641.85,340,641.77Z" transform="translate(-72.07 -151.99)"/><path class="cls-3" d="M246.94,528.86c-10.37-4.56-19.81-10.67-28.88-17.39-13.28-11-25-23.35-33.91-38.24-11.82-19.83-18.88-41-20.47-64.3-1.41-20.7.49-40.75,7.31-60.27,11.58-33.17,32.86-58.51,62.73-76.78A14.43,14.43,0,0,1,236,271c2.54,3.45,5,6.94,7.64,10.34,6.33,8.21,11.55,17.26,18.61,24.92-.7.43-1.36.91-2.09,1.28-23,11.76-38.58,30-47,54.34C207.75,377.56,208,393.77,209,410c1.37,22.87,10.81,42.16,26.46,58.6,9,9.41,20,15.73,31.53,21.42Z" transform="translate(-72.07 -151.99)"/><path class="cls-4" d="M262.24,306.23c-7.06-7.67-12.28-16.71-18.61-24.92-2.62-3.39-5.1-6.89-7.64-10.34a129.19,129.19,0,0,1,47.46-16.9c32.84-5.13,64,0,93.33,15.89,15.23,8.27,28,19.58,39.74,32.1,8.16,10.31,15.69,21,21.07,33.09,7.08,15.84,12.19,32.21,12.59,49.77,0,2,.4,4,.61,5.93l-44.69.07c-.71-5.59-1-11.26-2.21-16.74C395.62,336,372.79,310.59,335,300.79,310.57,294.47,285.84,295.92,262.24,306.23Z" transform="translate(-72.07 -151.99)"/><path class="cls-5" d="M406.11,390.92l44.69-.07c1.23,36.63-8.94,69.51-32.19,98.1-21,25.86-48,42.42-80.36,49.62a145.6,145.6,0,0,1-66.54-1c-8.62-2.09-16.68-5.33-24.76-8.74L267,490c19.7,7.19,40.15,8.13,60.43,4.78,35.37-5.85,59.34-26.6,72.43-59.82C405.38,420.87,406.2,405.92,406.11,390.92Z" transform="translate(-72.07 -151.99)"/><path class="cls-1" d="M406.11,390.92c.09,15-.73,29.95-6.29,44.07-13.08,33.22-37.06,54-72.43,59.82-20.28,3.35-40.73,2.42-60.43-4.78-11.49-5.69-22.57-12-31.53-21.42C219.79,452.18,210.35,432.89,209,410c-1-16.25-1.23-32.46,4.19-48.17,8.41-24.38,24-42.58,47-54.34.73-.37,1.39-.85,2.09-1.28,23.6-10.31,48.33-11.76,72.71-5.44,37.84,9.8,60.67,35.17,68.95,73.39C405.09,379.66,405.39,385.33,406.11,390.92Zm-98.92,69.23c34.76,0,62.68-26.41,62.43-63.36-.26-38.94-30-63.37-63.34-63-34.79.41-61.91,27-62.07,63.39C244,432.89,272.45,460.75,307.18,460.15Z" transform="translate(-72.07 -151.99)"/><path class="cls-4" d="M307.18,460.15c-34.73.6-63.14-27.26-63-62.95.17-36.43,27.28-63,62.07-63.39,33.35-.39,63.09,24,63.34,63C369.86,433.74,341.95,460.11,307.18,460.15Z" transform="translate(-72.07 -151.99)"/></svg>